# xmcd
#
# Track frame offsets:
#	150
#	12729
#	26355
#	42201
#	57094
#	72131
#	96385
#	111866
#	129431
#	143999
#	159848
#	171001
#	184391
#	201618
#	218496
# Disc length: 3146 seconds
# Revision: 1
# Processed by: cddbd v1.5.2PL0 Copyright (c) Steve Scherf et al.
#
# Submitted via: libkcddb 0.31
#
DISCID=d50c480f
DTITLE=Bumba-Boi de Nina Rodrigues - Brilho da Balaiada
DYEAR=2008
DGENRE=Unknown
TTITLE0=Kosta Netto - Olá, Bela Morena
TTITLE1=Kosta Netto - Meu São João
TTITLE2=Joelson Braga - Dança Vaqueiro
TTITLE3=Cláudio Ribeiro - Estrela Morena
TTITLE4=Kosta Netto - Nordeste Brasileiro
TTITLE5=Joelson Braga - Na Batida do Tambor
TTITLE6=Joelson Braga - Índia do Íguara
TTITLE7=Kosta Netto - Heroina do Íguara
TTITLE8=Joelson Braga - Levanta Poeira
TTITLE9=Rui Maranhão - Nina é Adrenalina
TTITLE10=Cláudio Ribeiro - Paixão de um Trovador
TTITLE11=Kosta Netto - Stella-Luz que me Ilumina
TTITLE12=Cláudio Ribeiro - Área dos Clarins
TTITLE13=Joelson Braga - Andarilho Sonhador
TTITLE14=Thais Moreno - Luar de Solidão
EXTD=
EXTT0=Concita Braga e Chico Poeta (i.m.)
EXTT1=Concita Braga e Chico Poeta (i.m.)
EXTT2=Joelson Braga
EXTT3=Cláudio Pinheiro e Luiz Bulcão
EXTT4=Concita Braga
EXTT5=Joelson Braga
EXTT6=Joelson Braga, Rogério Chaves e Valério Valente
EXTT7=Humberto do Maracanã
EXTT8=Joelson Braga
EXTT9=Rui Maranhão
EXTT10=Concita Braga
EXTT11=Concita Braga
EXTT12=Concita Braga e Rui Maranhão
EXTT13=Joelson Braga
EXTT14=Concita Braga
PLAYORDER=
